<svg xmlns="http://www.w3.org/2000/svg" viewBox="0 0 1270 720" font-family="sans-serif">
<defs><marker id="arrow" markerWidth="9" markerHeight="9" refX="7" refY="3" orient="auto" markerUnits="strokeWidth"><path d="M0,0 L7,3 L0,6 Z" fill="#4a5a68"/></marker></defs>
<rect x="0" y="0" width="1270" height="720" fill="#ffffff"/>
<text x="60" y="32" text-anchor="start" font-size="15" font-weight="800" fill="#1c2733">Tennessee Eastman Process — 계통 P&amp;ID (개략)</text>
<text x="78" y="244" text-anchor="end" font-size="10.5" font-weight="700" fill="#1c2733">A 공급</text>
<path d="M 86,240 L 116,240" fill="none" stroke="#4a5a68" stroke-width="2.2" marker-end="url(#arrow)"/>
<circle cx="132" cy="240" r="15.5" fill="#fff" stroke="#2C7BE5" stroke-width="1.6"/>
<line x1="116.5" y1="240" x2="147.5" y2="240" stroke="#2C7BE5" stroke-width="0.7"/>
<text x="132" y="237" text-anchor="middle" font-size="9" font-weight="700" fill="#1c2733">FC</text>
<text x="132" y="250.5" text-anchor="middle" font-size="8" fill="#7b8a9a">3</text>
<path d="M 148,240 L 182,240" fill="none" stroke="#4a5a68" stroke-width="2.2"/>
<path d="M 187,231 L 187,249 L 198,240 Z" fill="#E67E22"/>
<path d="M 209,231 L 209,249 L 198,240 Z" fill="#E67E22"/>
<line x1="198" y1="240" x2="198" y2="225" stroke="#E67E22" stroke-width="1.4"/>
<path d="M 191,225 q7,-7 14,0 z" fill="none" stroke="#E67E22" stroke-width="1.4"/>
<text x="198" y="217" text-anchor="middle" font-size="8.5" font-weight="700" fill="#E67E22">XMV3</text>
<path d="M 214,240 L 250,240" fill="none" stroke="#4a5a68" stroke-width="2.2"/>
<circle cx="236" cy="227" r="9.5" fill="#fff" stroke="#4a5a68" stroke-width="1.2"/>
<text x="236" y="230.3" text-anchor="middle" font-size="9" font-weight="800" fill="#4a5a68">1</text>
<text x="78" y="304" text-anchor="end" font-size="10.5" font-weight="700" fill="#1c2733">D 공급</text>
<path d="M 86,300 L 116,300" fill="none" stroke="#4a5a68" stroke-width="2.2" marker-end="url(#arrow)"/>
<circle cx="132" cy="300" r="15.5" fill="#fff" stroke="#2C7BE5" stroke-width="1.6"/>
<line x1="116.5" y1="300" x2="147.5" y2="300" stroke="#2C7BE5" stroke-width="0.7"/>
<text x="132" y="297" text-anchor="middle" font-size="9" font-weight="700" fill="#1c2733">FC</text>
<text x="132" y="310.5" text-anchor="middle" font-size="8" fill="#7b8a9a">1</text>
<path d="M 148,300 L 182,300" fill="none" stroke="#4a5a68" stroke-width="2.2"/>
<path d="M 187,291 L 187,309 L 198,300 Z" fill="#E67E22"/>
<path d="M 209,291 L 209,309 L 198,300 Z" fill="#E67E22"/>
<line x1="198" y1="300" x2="198" y2="285" stroke="#E67E22" stroke-width="1.4"/>
<path d="M 191,285 q7,-7 14,0 z" fill="none" stroke="#E67E22" stroke-width="1.4"/>
<text x="198" y="277" text-anchor="middle" font-size="8.5" font-weight="700" fill="#E67E22">XMV1</text>
<path d="M 214,300 L 250,300" fill="none" stroke="#4a5a68" stroke-width="2.2"/>
<circle cx="236" cy="287" r="9.5" fill="#fff" stroke="#4a5a68" stroke-width="1.2"/>
<text x="236" y="290.3" text-anchor="middle" font-size="9" font-weight="800" fill="#4a5a68">2</text>
<text x="78" y="364" text-anchor="end" font-size="10.5" font-weight="700" fill="#1c2733">E 공급</text>
<path d="M 86,360 L 116,360" fill="none" stroke="#4a5a68" stroke-width="2.2" marker-end="url(#arrow)"/>
<circle cx="132" cy="360" r="15.5" fill="#fff" stroke="#2C7BE5" stroke-width="1.6"/>
<line x1="116.5" y1="360" x2="147.5" y2="360" stroke="#2C7BE5" stroke-width="0.7"/>
<text x="132" y="357" text-anchor="middle" font-size="9" font-weight="700" fill="#1c2733">FC</text>
<text x="132" y="370.5" text-anchor="middle" font-size="8" fill="#7b8a9a">2</text>
<path d="M 148,360 L 182,360" fill="none" stroke="#4a5a68" stroke-width="2.2"/>
<path d="M 187,351 L 187,369 L 198,360 Z" fill="#E67E22"/>
<path d="M 209,351 L 209,369 L 198,360 Z" fill="#E67E22"/>
<line x1="198" y1="360" x2="198" y2="345" stroke="#E67E22" stroke-width="1.4"/>
<path d="M 191,345 q7,-7 14,0 z" fill="none" stroke="#E67E22" stroke-width="1.4"/>
<text x="198" y="337" text-anchor="middle" font-size="8.5" font-weight="700" fill="#E67E22">XMV2</text>
<path d="M 214,360 L 250,360" fill="none" stroke="#4a5a68" stroke-width="2.2"/>
<circle cx="236" cy="347" r="9.5" fill="#fff" stroke="#4a5a68" stroke-width="1.2"/>
<text x="236" y="350.3" text-anchor="middle" font-size="9" font-weight="800" fill="#4a5a68">3</text>
<path d="M 250,240 L 250,360" fill="none" stroke="#4a5a68" stroke-width="2.2"/>
<path d="M 250,300 L 288,300" fill="none" stroke="#4a5a68" stroke-width="2.2"/>
<circle cx="288" cy="300" r="3.5" fill="#4a5a68"/>
<line x1="320" y1="258" x2="320" y2="300" stroke="#2C7BE5" stroke-width="0.9" stroke-dasharray="2,2"/>
<circle cx="320" cy="258" r="15.5" fill="#fff" stroke="#2C7BE5" stroke-width="1.6"/>
<line x1="304.5" y1="258" x2="335.5" y2="258" stroke="#2C7BE5" stroke-width="0.7"/>
<text x="320" y="255" text-anchor="middle" font-size="9" font-weight="700" fill="#1c2733">FI</text>
<text x="320" y="268.5" text-anchor="middle" font-size="8" fill="#7b8a9a">6</text>
<line x1="352" y1="258" x2="352" y2="300" stroke="#2C7BE5" stroke-width="0.9" stroke-dasharray="2,2"/>
<circle cx="352" cy="258" r="15.5" fill="#fff" stroke="#2C7BE5" stroke-width="1.6"/>
<line x1="336.5" y1="258" x2="367.5" y2="258" stroke="#2C7BE5" stroke-width="0.7"/>
<text x="352" y="255" text-anchor="middle" font-size="9" font-weight="700" fill="#1c2733">AI</text>
<text x="352" y="268.5" text-anchor="middle" font-size="8" fill="#7b8a9a">6</text>
<circle cx="304" cy="287" r="9.5" fill="#fff" stroke="#4a5a68" stroke-width="1.2"/>
<text x="304" y="290.3" text-anchor="middle" font-size="9" font-weight="800" fill="#4a5a68">6</text>
<path d="M 288,300 L 372,300" fill="none" stroke="#4a5a68" stroke-width="2.2" marker-end="url(#arrow)"/>
<path d="M 372,209 A 48.0,9 0 0 1 468,209 L 468,411 A 48.0,9 0 0 1 372,411 Z" fill="#f4f6f8" stroke="#34495E" stroke-width="1.8"/>
<ellipse cx="420.0" cy="209" rx="48.0" ry="9" fill="#f4f6f8" stroke="#34495E" stroke-width="1.8"/>
<text x="420.0" y="310.0" text-anchor="middle" font-size="12" font-weight="800" fill="#1c2733">반응기</text>
<text x="420.0" y="325.0" text-anchor="middle" font-size="9" fill="#7b8a9a">Reactor</text>
<path d="M 446.0,224 A 9,11.0 0 0 1 446.0,246.0 A 9,11.0 0 0 0 446.0,268.0 A 9,11.0 0 0 1 446.0,290.0 A 9,11.0 0 0 0 446.0,312.0 A 9,11.0 0 0 1 446.0,334.0 A 9,11.0 0 0 0 446.0,356.0 A 9,11.0 0 0 1 446.0,378.0 A 9,11.0 0 0 0 446.0,400.0" fill="none" stroke="#17A2B8" stroke-width="1.7" opacity="0.85"/>
<circle cx="392" cy="226" r="15.5" fill="#fff" stroke="#2C7BE5" stroke-width="1.6"/>
<line x1="376.5" y1="226" x2="407.5" y2="226" stroke="#2C7BE5" stroke-width="0.7"/>
<text x="392" y="223" text-anchor="middle" font-size="9" font-weight="700" fill="#1c2733">PI</text>
<text x="392" y="236.5" text-anchor="middle" font-size="8" fill="#7b8a9a">7</text>
<line x1="474" y1="262" x2="468" y2="262" stroke="#2C7BE5" stroke-width="0.9" stroke-dasharray="2,2"/>
<circle cx="474" cy="262" r="15.5" fill="#fff" stroke="#2C7BE5" stroke-width="1.6"/>
<line x1="458.5" y1="262" x2="489.5" y2="262" stroke="#2C7BE5" stroke-width="0.7"/>
<text x="474" y="259" text-anchor="middle" font-size="9" font-weight="700" fill="#1c2733">TI</text>
<text x="474" y="272.5" text-anchor="middle" font-size="8" fill="#7b8a9a">9</text>
<line x1="474" y1="356" x2="468" y2="356" stroke="#2C7BE5" stroke-width="0.9" stroke-dasharray="2,2"/>
<circle cx="474" cy="356" r="15.5" fill="#fff" stroke="#2C7BE5" stroke-width="1.6"/>
<line x1="458.5" y1="356" x2="489.5" y2="356" stroke="#2C7BE5" stroke-width="0.7"/>
<text x="474" y="353" text-anchor="middle" font-size="9" font-weight="700" fill="#1c2733">LI</text>
<text x="474" y="366.5" text-anchor="middle" font-size="8" fill="#7b8a9a">8</text>
<text x="318" y="452" text-anchor="end" font-size="8.5" font-weight="700" fill="#17A2B8">냉각수</text>
<path d="M 329,431 L 329,449 L 340,440 Z" fill="#E67E22"/>
<path d="M 351,431 L 351,449 L 340,440 Z" fill="#E67E22"/>
<line x1="340" y1="440" x2="340" y2="425" stroke="#E67E22" stroke-width="1.4"/>
<path d="M 333,425 q7,-7 14,0 z" fill="none" stroke="#E67E22" stroke-width="1.4"/>
<text x="340" y="417" text-anchor="middle" font-size="8.5" font-weight="700" fill="#E67E22">XMV10</text>
<path d="M 324,440 L 446.0,400" fill="none" stroke="#17A2B8" stroke-width="1.8" marker-end="url(#arrow)"/>
<line x1="322" y1="214" x2="446.0" y2="224" stroke="#17A2B8" stroke-width="0.9" stroke-dasharray="2,2"/>
<circle cx="322" cy="214" r="15.5" fill="#fff" stroke="#17A2B8" stroke-width="1.6"/>
<line x1="306.5" y1="214" x2="337.5" y2="214" stroke="#17A2B8" stroke-width="0.7"/>
<text x="322" y="211" text-anchor="middle" font-size="9" font-weight="700" fill="#1c2733">TI</text>
<text x="322" y="224.5" text-anchor="middle" font-size="8" fill="#7b8a9a">21</text>
<text x="360" y="470" text-anchor="middle" font-size="8.5" font-weight="400" fill="#17A2B8">반응기 냉각수(XMV10) · 출구온도 TI-21</text>
<path d="M 420.0,200 L 420.0,150 L 528,150" fill="none" stroke="#4a5a68" stroke-width="2.2" marker-end="url(#arrow)"/>
<circle cx="486" cy="138" r="9.5" fill="#fff" stroke="#4a5a68" stroke-width="1.2"/>
<text x="486" y="141.3" text-anchor="middle" font-size="9" font-weight="800" fill="#4a5a68">7</text>
<rect x="528" y="128" width="128" height="44" rx="8" fill="#f4f6f8" stroke="#34495E" stroke-width="1.8"/>
<path d="M 536,150.0 l 12,-14.666666666666666 l 20,29.333333333333332 l 20,-29.333333333333332 l 20,29.333333333333332 l 12,-14.666666666666666" fill="none" stroke="#34495E" stroke-width="1" opacity="0.55"/>
<text x="592.0" y="186" text-anchor="middle" font-size="11" font-weight="800" fill="#1c2733">응축기 Condenser</text>
<path d="M 577,87 L 577,105 L 588,96 Z" fill="#E67E22"/>
<path d="M 599,87 L 599,105 L 588,96 Z" fill="#E67E22"/>
<line x1="588" y1="96" x2="588" y2="81" stroke="#E67E22" stroke-width="1.4"/>
<path d="M 581,81 q7,-7 14,0 z" fill="none" stroke="#E67E22" stroke-width="1.4"/>
<text x="588" y="73" text-anchor="middle" font-size="8.5" font-weight="700" fill="#E67E22">XMV11</text>
<path d="M 588,106 L 588,128" fill="none" stroke="#17A2B8" stroke-width="1.8"/>
<line x1="636" y1="96" x2="614" y2="108" stroke="#17A2B8" stroke-width="0.9" stroke-dasharray="2,2"/>
<circle cx="636" cy="96" r="15.5" fill="#fff" stroke="#17A2B8" stroke-width="1.6"/>
<line x1="620.5" y1="96" x2="651.5" y2="96" stroke="#17A2B8" stroke-width="0.7"/>
<text x="636" y="93" text-anchor="middle" font-size="9" font-weight="700" fill="#1c2733">TI</text>
<text x="636" y="106.5" text-anchor="middle" font-size="8" fill="#7b8a9a">22</text>
<text x="592" y="118" text-anchor="start" font-size="8" font-weight="700" fill="#17A2B8">냉각수</text>
<path d="M 656,150 L 726,150 L 726,200" fill="none" stroke="#4a5a68" stroke-width="2.2" marker-end="url(#arrow)"/>
<path d="M 682,209 A 46.0,9 0 0 1 774,209 L 774,381 A 46.0,9 0 0 1 682,381 Z" fill="#f4f6f8" stroke="#34495E" stroke-width="1.8"/>
<ellipse cx="728.0" cy="209" rx="46.0" ry="9" fill="#f4f6f8" stroke="#34495E" stroke-width="1.8"/>
<text x="728.0" y="292" text-anchor="middle" font-size="12" font-weight="800" fill="#1c2733">기액분리기</text>
<text x="728.0" y="307" text-anchor="middle" font-size="9" fill="#7b8a9a">Separator</text>
<circle cx="702" cy="226" r="15.5" fill="#fff" stroke="#2C7BE5" stroke-width="1.6"/>
<line x1="686.5" y1="226" x2="717.5" y2="226" stroke="#2C7BE5" stroke-width="0.7"/>
<text x="702" y="223" text-anchor="middle" font-size="9" font-weight="700" fill="#1c2733">PI</text>
<text x="702" y="236.5" text-anchor="middle" font-size="8" fill="#7b8a9a">13</text>
<line x1="780" y1="262" x2="774" y2="262" stroke="#2C7BE5" stroke-width="0.9" stroke-dasharray="2,2"/>
<circle cx="780" cy="262" r="15.5" fill="#fff" stroke="#2C7BE5" stroke-width="1.6"/>
<line x1="764.5" y1="262" x2="795.5" y2="262" stroke="#2C7BE5" stroke-width="0.7"/>
<text x="780" y="259" text-anchor="middle" font-size="9" font-weight="700" fill="#1c2733">TI</text>
<text x="780" y="272.5" text-anchor="middle" font-size="8" fill="#7b8a9a">11</text>
<line x1="780" y1="348" x2="774" y2="348" stroke="#2C7BE5" stroke-width="0.9" stroke-dasharray="2,2"/>
<circle cx="780" cy="348" r="15.5" fill="#fff" stroke="#2C7BE5" stroke-width="1.6"/>
<line x1="764.5" y1="348" x2="795.5" y2="348" stroke="#2C7BE5" stroke-width="0.7"/>
<text x="780" y="345" text-anchor="middle" font-size="9" font-weight="700" fill="#1c2733">LI</text>
<text x="780" y="358.5" text-anchor="middle" font-size="8" fill="#7b8a9a">12</text>
<path d="M 728.0,200 L 728.0,130" fill="none" stroke="#4a5a68" stroke-width="2.2"/>
<circle cx="728.0" cy="108" r="23" fill="#f4f6f8" stroke="#34495E" stroke-width="1.8"/>
<path d="M 705.0,91.9 L 751.0,99.95 M 705.0,124.1 L 751.0,116.05" stroke="#34495E" stroke-width="1.2"/>
<text x="728.0" y="144" text-anchor="middle" font-size="10" font-weight="700" fill="#1c2733">압축기 K-1</text>
<circle cx="776.0" cy="108" r="15.5" fill="#fff" stroke="#2C7BE5" stroke-width="1.6"/>
<line x1="760.5" y1="108" x2="791.5" y2="108" stroke="#2C7BE5" stroke-width="0.7"/>
<text x="776.0" y="105" text-anchor="middle" font-size="9" font-weight="700" fill="#1c2733">JI</text>
<text x="776.0" y="118.5" text-anchor="middle" font-size="8" fill="#7b8a9a">20</text>
<path d="M 728.0,85 L 728.0,44" fill="none" stroke="#4a5a68" stroke-width="2.2"/>
<path d="M 775.0,35 L 775.0,53 L 786.0,44 Z" fill="#E67E22"/>
<path d="M 797.0,35 L 797.0,53 L 786.0,44 Z" fill="#E67E22"/>
<line x1="786.0" y1="44" x2="786.0" y2="29" stroke="#E67E22" stroke-width="1.4"/>
<path d="M 779.0,29 q7,-7 14,0 z" fill="none" stroke="#E67E22" stroke-width="1.4"/>
<text x="786.0" y="21" text-anchor="middle" font-size="8.5" font-weight="700" fill="#E67E22">XMV6</text>
<path d="M 728.0,44 L 770.0,44" fill="none" stroke="#4a5a68" stroke-width="2.2"/>
<line x1="828.0" y1="44" x2="812.0" y2="44" stroke="#2C7BE5" stroke-width="0.9" stroke-dasharray="2,2"/>
<circle cx="828.0" cy="44" r="15.5" fill="#fff" stroke="#2C7BE5" stroke-width="1.6"/>
<line x1="812.5" y1="44" x2="843.5" y2="44" stroke="#2C7BE5" stroke-width="0.7"/>
<text x="828.0" y="41" text-anchor="middle" font-size="9" font-weight="700" fill="#1c2733">AI</text>
<text x="828.0" y="54.5" text-anchor="middle" font-size="8" fill="#7b8a9a">9</text>
<path d="M 844.0,44 L 898.0,44" fill="none" stroke="#4a5a68" stroke-width="2.2" marker-end="url(#arrow)"/>
<text x="906.0" y="48" text-anchor="start" font-size="10" font-weight="700" fill="#1c2733">퍼지 Purge</text>
<circle cx="754.0" cy="34" r="9.5" fill="#fff" stroke="#4a5a68" stroke-width="1.2"/>
<text x="754.0" y="37.3" text-anchor="middle" font-size="9" font-weight="800" fill="#4a5a68">9</text>
<path d="M 651.0,99 L 651.0,117 L 662.0,108 Z" fill="#E67E22"/>
<path d="M 673.0,99 L 673.0,117 L 662.0,108 Z" fill="#E67E22"/>
<line x1="662.0" y1="108" x2="662.0" y2="93" stroke="#E67E22" stroke-width="1.4"/>
<path d="M 655.0,93 q7,-7 14,0 z" fill="none" stroke="#E67E22" stroke-width="1.4"/>
<text x="677.0" y="111" text-anchor="start" font-size="8.5" font-weight="700" fill="#E67E22">XMV5</text>
<path d="M 705.0,108 L 673.0,108" fill="none" stroke="#4a5a68" stroke-width="2.2"/>
<path d="M 651.0,108 L 288,108 L 288,300" fill="none" stroke="#4a5a68" stroke-width="2.2" stroke-dasharray="7,5" marker-end="url(#arrow)"/>
<circle cx="360" cy="108" r="9.5" fill="#fff" stroke="#4a5a68" stroke-width="1.2"/>
<text x="360" y="111.3" text-anchor="middle" font-size="9" font-weight="800" fill="#4a5a68">8</text>
<text x="470" y="100" text-anchor="middle" font-size="9" font-weight="400" fill="#7b8a9a">재순환 가스 (stream 8)</text>
<path d="M 728.0,390 L 728.0,445 L 812,445" fill="none" stroke="#4a5a68" stroke-width="2.2"/>
<line x1="760" y1="415" x2="760" y2="445" stroke="#2C7BE5" stroke-width="0.9" stroke-dasharray="2,2"/>
<circle cx="760" cy="415" r="15.5" fill="#fff" stroke="#2C7BE5" stroke-width="1.6"/>
<line x1="744.5" y1="415" x2="775.5" y2="415" stroke="#2C7BE5" stroke-width="0.7"/>
<text x="760" y="412" text-anchor="middle" font-size="9" font-weight="700" fill="#1c2733">FI</text>
<text x="760" y="425.5" text-anchor="middle" font-size="8" fill="#7b8a9a">14</text>
<path d="M 817,436 L 817,454 L 828,445 Z" fill="#E67E22"/>
<path d="M 839,436 L 839,454 L 828,445 Z" fill="#E67E22"/>
<line x1="828" y1="445" x2="828" y2="430" stroke="#E67E22" stroke-width="1.4"/>
<path d="M 821,430 q7,-7 14,0 z" fill="none" stroke="#E67E22" stroke-width="1.4"/>
<text x="828" y="422" text-anchor="middle" font-size="8.5" font-weight="700" fill="#E67E22">XMV7</text>
<path d="M 844,445 L 912,445 L 912,320" fill="none" stroke="#4a5a68" stroke-width="2.2" marker-end="url(#arrow)"/>
<circle cx="792" cy="433" r="9.5" fill="#fff" stroke="#4a5a68" stroke-width="1.2"/>
<text x="792" y="436.3" text-anchor="middle" font-size="9" font-weight="800" fill="#4a5a68">10</text>
<text x="556" y="624" text-anchor="end" font-size="10.5" font-weight="700" fill="#1c2733">A·B·C 공급</text>
<path d="M 564,620 L 596,620" fill="none" stroke="#4a5a68" stroke-width="2.2" marker-end="url(#arrow)"/>
<circle cx="612" cy="620" r="15.5" fill="#fff" stroke="#2C7BE5" stroke-width="1.6"/>
<line x1="596.5" y1="620" x2="627.5" y2="620" stroke="#2C7BE5" stroke-width="0.7"/>
<text x="612" y="617" text-anchor="middle" font-size="9" font-weight="700" fill="#1c2733">FC</text>
<text x="612" y="630.5" text-anchor="middle" font-size="8" fill="#7b8a9a">4</text>
<path d="M 628,620 L 662,620" fill="none" stroke="#4a5a68" stroke-width="2.2"/>
<path d="M 667,611 L 667,629 L 678,620 Z" fill="#E67E22"/>
<path d="M 689,611 L 689,629 L 678,620 Z" fill="#E67E22"/>
<line x1="678" y1="620" x2="678" y2="605" stroke="#E67E22" stroke-width="1.4"/>
<path d="M 671,605 q7,-7 14,0 z" fill="none" stroke="#E67E22" stroke-width="1.4"/>
<text x="678" y="597" text-anchor="middle" font-size="8.5" font-weight="700" fill="#E67E22">XMV4</text>
<path d="M 694,620 L 872,620 L 872,430" fill="none" stroke="#4a5a68" stroke-width="2.2" marker-end="url(#arrow)"/>
<circle cx="792" cy="608" r="9.5" fill="#fff" stroke="#4a5a68" stroke-width="1.2"/>
<text x="792" y="611.3" text-anchor="middle" font-size="9" font-weight="800" fill="#4a5a68">4</text>
<path d="M 872,430 L 914,430" fill="none" stroke="#4a5a68" stroke-width="2.2"/>
<rect x="914" y="210" width="80" height="258" rx="14" fill="#f4f6f8" stroke="#34495E" stroke-width="1.8"/>
<line x1="920" y1="261.6" x2="988" y2="261.6" stroke="#34495E" stroke-width="0.8" opacity="0.5"/>
<line x1="920" y1="313.2" x2="988" y2="313.2" stroke="#34495E" stroke-width="0.8" opacity="0.5"/>
<line x1="920" y1="364.8" x2="988" y2="364.8" stroke="#34495E" stroke-width="0.8" opacity="0.5"/>
<line x1="920" y1="416.4" x2="988" y2="416.4" stroke="#34495E" stroke-width="0.8" opacity="0.5"/>
<text x="954.0" y="339.0" text-anchor="middle" font-size="12" font-weight="800" fill="#1c2733" transform="rotate(-90 954.0,339.0)">스트리퍼</text>
<line x1="1000" y1="246" x2="994" y2="246" stroke="#2C7BE5" stroke-width="0.9" stroke-dasharray="2,2"/>
<circle cx="1000" cy="246" r="15.5" fill="#fff" stroke="#2C7BE5" stroke-width="1.6"/>
<line x1="984.5" y1="246" x2="1015.5" y2="246" stroke="#2C7BE5" stroke-width="0.7"/>
<text x="1000" y="243" text-anchor="middle" font-size="9" font-weight="700" fill="#1c2733">PI</text>
<text x="1000" y="256.5" text-anchor="middle" font-size="8" fill="#7b8a9a">16</text>
<line x1="1000" y1="330" x2="994" y2="330" stroke="#2C7BE5" stroke-width="0.9" stroke-dasharray="2,2"/>
<circle cx="1000" cy="330" r="15.5" fill="#fff" stroke="#2C7BE5" stroke-width="1.6"/>
<line x1="984.5" y1="330" x2="1015.5" y2="330" stroke="#2C7BE5" stroke-width="0.7"/>
<text x="1000" y="327" text-anchor="middle" font-size="9" font-weight="700" fill="#1c2733">TI</text>
<text x="1000" y="340.5" text-anchor="middle" font-size="8" fill="#7b8a9a">18</text>
<line x1="1000" y1="420" x2="994" y2="420" stroke="#2C7BE5" stroke-width="0.9" stroke-dasharray="2,2"/>
<circle cx="1000" cy="420" r="15.5" fill="#fff" stroke="#2C7BE5" stroke-width="1.6"/>
<line x1="984.5" y1="420" x2="1015.5" y2="420" stroke="#2C7BE5" stroke-width="0.7"/>
<text x="1000" y="417" text-anchor="middle" font-size="9" font-weight="700" fill="#1c2733">LI</text>
<text x="1000" y="430.5" text-anchor="middle" font-size="8" fill="#7b8a9a">15</text>
<text x="886" y="500" text-anchor="end" font-size="9" font-weight="700" fill="#17A2B8">스팀</text>
<path d="M 943.0,491 L 943.0,509 L 954.0,500 Z" fill="#E67E22"/>
<path d="M 965.0,491 L 965.0,509 L 954.0,500 Z" fill="#E67E22"/>
<line x1="954.0" y1="500" x2="954.0" y2="485" stroke="#E67E22" stroke-width="1.4"/>
<path d="M 947.0,485 q7,-7 14,0 z" fill="none" stroke="#E67E22" stroke-width="1.4"/>
<text x="954.0" y="477" text-anchor="middle" font-size="8.5" font-weight="700" fill="#E67E22">XMV9</text>
<path d="M 954.0,488 L 954.0,468" fill="none" stroke="#17A2B8" stroke-width="1.8" marker-end="url(#arrow)"/>
<line x1="910.0" y1="500" x2="943.0" y2="500" stroke="#17A2B8" stroke-width="0.9" stroke-dasharray="2,2"/>
<circle cx="910.0" cy="500" r="15.5" fill="#fff" stroke="#17A2B8" stroke-width="1.6"/>
<line x1="894.5" y1="500" x2="925.5" y2="500" stroke="#17A2B8" stroke-width="0.7"/>
<text x="910.0" y="497" text-anchor="middle" font-size="9" font-weight="700" fill="#1c2733">FI</text>
<text x="910.0" y="510.5" text-anchor="middle" font-size="8" fill="#7b8a9a">19</text>
<path d="M 954.0,210 L 954.0,66 L 302,66" fill="none" stroke="#4a5a68" stroke-width="2.2" stroke-dasharray="7,5"/>
<path d="M 302,66 L 288,66 L 288,108" fill="none" stroke="#4a5a68" stroke-width="2.2" stroke-dasharray="7,5"/>
<circle cx="894.0" cy="66" r="9.5" fill="#fff" stroke="#4a5a68" stroke-width="1.2"/>
<text x="894.0" y="69.3" text-anchor="middle" font-size="9" font-weight="800" fill="#4a5a68">5</text>
<text x="700" y="58" text-anchor="middle" font-size="8.5" font-weight="400" fill="#7b8a9a">스트리퍼 오버헤드 재순환 (stream 5)</text>
<path d="M 994,452 L 1004,452" fill="none" stroke="#4a5a68" stroke-width="2.2"/>
<line x1="986" y1="418" x2="986" y2="452" stroke="#2C7BE5" stroke-width="0.9" stroke-dasharray="2,2"/>
<circle cx="986" cy="418" r="15.5" fill="#fff" stroke="#2C7BE5" stroke-width="1.6"/>
<line x1="970.5" y1="418" x2="1001.5" y2="418" stroke="#2C7BE5" stroke-width="0.7"/>
<text x="986" y="415" text-anchor="middle" font-size="9" font-weight="700" fill="#1c2733">FI</text>
<text x="986" y="428.5" text-anchor="middle" font-size="8" fill="#7b8a9a">17</text>
<path d="M 1013,443 L 1013,461 L 1024,452 Z" fill="#E67E22"/>
<path d="M 1035,443 L 1035,461 L 1024,452 Z" fill="#E67E22"/>
<line x1="1024" y1="452" x2="1024" y2="437" stroke="#E67E22" stroke-width="1.4"/>
<path d="M 1017,437 q7,-7 14,0 z" fill="none" stroke="#E67E22" stroke-width="1.4"/>
<text x="1024" y="429" text-anchor="middle" font-size="8.5" font-weight="700" fill="#E67E22">XMV8</text>
<path d="M 1040,452 L 1074,452" fill="none" stroke="#4a5a68" stroke-width="2.2"/>
<line x1="1106" y1="452" x2="1090" y2="452" stroke="#2C7BE5" stroke-width="0.9" stroke-dasharray="2,2"/>
<circle cx="1106" cy="452" r="15.5" fill="#fff" stroke="#2C7BE5" stroke-width="1.6"/>
<line x1="1090.5" y1="452" x2="1121.5" y2="452" stroke="#2C7BE5" stroke-width="0.7"/>
<text x="1106" y="449" text-anchor="middle" font-size="9" font-weight="700" fill="#1c2733">AI</text>
<text x="1106" y="462.5" text-anchor="middle" font-size="8" fill="#7b8a9a">11</text>
<path d="M 1122,452 L 1160,452" fill="none" stroke="#4a5a68" stroke-width="2.2"/>
<rect x="1112" y="486" width="96" height="34" rx="6" fill="#d7f0df" stroke="#27AE60" stroke-width="1.8"/>
<text x="1160" y="507" text-anchor="middle" font-size="11" font-weight="800" fill="#1c2733">제품 G · H</text>
<path d="M 1160,452 L 1160,486" fill="none" stroke="#27AE60" stroke-width="2.2" marker-end="url(#arrow)"/>
<circle cx="1058" cy="440" r="9.5" fill="#fff" stroke="#4a5a68" stroke-width="1.2"/>
<text x="1058" y="443.3" text-anchor="middle" font-size="9" font-weight="800" fill="#4a5a68">11</text>
<line x1="60" y1="665" x2="1210" y2="665" stroke="#e6ebf0" stroke-width="1"/>
<circle cx="80" cy="687" r="9" fill="#fff" stroke="#2C7BE5" stroke-width="1.4"/>
<text x="96" y="691" text-anchor="start" font-size="9" font-weight="400" fill="#1c2733">계기 버블 — 측정변수 XMEAS (FI·PI·TI·LI·AI·JI)</text>
<path d="M 430,680 L 430,694 L 439,687 Z M 448,680 L 448,694 L 439,687 Z" fill="#E67E22"/>
<text x="456" y="691" text-anchor="start" font-size="9" font-weight="400" fill="#1c2733">제어밸브 — 조작변수 XMV 1~11</text>
<circle cx="720" cy="687" r="9" fill="#fff" stroke="#4a5a68" stroke-width="1.2"/>
<text x="736" y="691" text-anchor="start" font-size="9" font-weight="400" fill="#1c2733">번호 = 공정 스트림 1~11</text>
<line x1="920" y1="687" x2="952" y2="687" stroke="#7b8a9a" stroke-width="2" stroke-dasharray="7,5"/>
<text x="958" y="691" text-anchor="start" font-size="9" font-weight="400" fill="#1c2733">재순환 라인</text>
<path d="M 1050,687 q10,-8 20,0" fill="none" stroke="#17A2B8" stroke-width="1.7"/>
<text x="1078" y="691" text-anchor="start" font-size="9" font-weight="400" fill="#1c2733">냉각수/스팀</text>
</svg>